# xmcd
#
# Track frame offsets:
#	150
#	22120
#	53937
#	95612
#	122540
#	156450
#	206925
#
# Disc length: 3034 seconds
#
# Revision: 1
# Processed by: cddbd v1.5.1PL0 Copyright (c) Steve Scherf et al.
# Submitted via: CDex 1.50Beta5
#
DISCID=640bd807
DTITLE=ゼノサーガ - ゼノサーガ アウターファイル03
DYEAR=1900
DGENRE=Other
TTITLE0=トラック1
TTITLE1=Jr.捕獲
TTITLE2=完成
TTITLE3=再会
TTITLE4=慈悲の涙
TTITLE5=最善
TTITLE6=トラック7
EXTD=
EXTT0=
EXTT1=
EXTT2=
EXTT3=
EXTT4=
EXTT5=
EXTT6=
PLAYORDER=
